<?xml version="1.0" encoding="UTF-8"?>
<svg xmlns="http://www.w3.org/2000/svg" xmlns:xlink="http://www.w3.org/1999/xlink" width="32pt" height="32pt" viewBox="0 0 32 32" version="1.1">
<g id="surface1">
<path style=" stroke:none;fill-rule:nonzero;fill:rgb(100%,100%,100%);fill-opacity:1;" d="M 25.332031 4 L 6.652344 4 C 5.171875 4 4.011719 5.199219 4.011719 6.667969 L 4 25.332031 C 4 26.800781 5.171875 28 6.652344 28 L 25.332031 28 C 26.800781 28 28 26.800781 28 25.332031 L 28 6.667969 C 28 5.199219 26.800781 4 25.332031 4 Z M 25.332031 20 L 20 20 C 20 22.214844 18.199219 24 16 24 C 13.800781 24 12 22.214844 12 20 L 6.652344 20 L 6.652344 6.667969 L 25.332031 6.667969 Z M 10.667969 14.667969 L 13.332031 14.667969 L 13.332031 18.667969 L 18.667969 18.667969 L 18.667969 14.667969 L 21.332031 14.667969 L 16 9.332031 Z M 10.667969 14.667969 "/>
</g>
</svg>
